<svg xmlns="http://www.w3.org/2000/svg" width="1200" height="630" viewBox="0 0 1200 630" role="img" aria-labelledby="title desc">
  <title id="title">RackNerd vs DigitalOcean</title>
  <desc id="desc">RackNerd vs DigitalOcean VPS comparison promotional banner</desc>
  <defs>
    <linearGradient id="bg" x1="0" y1="0" x2="1" y2="1">
      <stop offset="0" stop-color="#101828"/>
      <stop offset="0.52" stop-color="#143a63"/>
      <stop offset="1" stop-color="#f47b20"/>
    </linearGradient>
    <linearGradient id="panel" x1="0" y1="0" x2="1" y2="1">
      <stop offset="0" stop-color="rgba(255,255,255,0.15)"/>
      <stop offset="1" stop-color="rgba(255,255,255,0.04)"/>
    </linearGradient>
    <filter id="shadow" x="-20%" y="-20%" width="140%" height="140%">
      <feDropShadow dx="0" dy="18" stdDeviation="18" flood-color="#06111f" flood-opacity="0.35"/>
    </filter>
  </defs>
  <rect width="1200" height="630" fill="url(#bg)"/>
  <path d="M0 492 C176 438 295 504 445 452 C613 394 709 305 879 337 C1009 362 1092 426 1200 379 L1200 630 L0 630 Z" fill="rgba(255,255,255,0.08)"/>
  <path d="M757 0 L1200 0 L1200 630 L925 630 C1002 474 1004 339 941 226 C899 150 835 75 757 0 Z" fill="rgba(255,255,255,0.08)"/>
  <rect x="72" y="72" width="1056" height="486" rx="34" fill="url(#panel)" stroke="rgba(255,255,255,0.22)" filter="url(#shadow)"/>
  <image href="racknerd-logo-light.png" x="98" y="98" width="302" height="40" preserveAspectRatio="xMinYMin meet"/>
  <text x="98" y="192" font-family="Inter, Arial, sans-serif" font-size="22" font-weight="800" fill="#ffb15c" letter-spacing="1.5">VPS COMPARISON</text>
  <text x="98" y="282" font-family="Inter, Arial, sans-serif" font-size="64" font-weight="900" fill="#ffffff">RackNerd vs DigitalOcean</text>
  <text x="102" y="336" font-family="Inter, Arial, sans-serif" font-size="28" font-weight="600" fill="#dce8f7">Budget VPS simplicity compared with a developer cloud platform</text>
  <rect x="100" y="402" width="238" height="54" rx="27" fill="#f47b20"/>
  <text x="219" y="436" text-anchor="middle" font-family="Inter, Arial, sans-serif" font-size="20" font-weight="850" fill="#ffffff">View VPS Deals</text>
  <g opacity="0.95">
    <rect x="760" y="126" width="304" height="230" rx="24" fill="rgba(8,24,44,0.58)" stroke="rgba(255,255,255,0.2)"/>
    <rect x="794" y="164" width="236" height="22" rx="11" fill="#ffb15c" opacity="0.95"/>
    <rect x="794" y="210" width="184" height="18" rx="9" fill="#ffffff" opacity="0.74"/>
    <rect x="794" y="248" width="214" height="18" rx="9" fill="#ffffff" opacity="0.52"/>
    <rect x="794" y="286" width="152" height="18" rx="9" fill="#ffffff" opacity="0.52"/>
  </g>
  <rect x="760" y="438" width="112" height="34" rx="17" fill="rgba(255,255,255,0.13)" stroke="rgba(255,255,255,0.28)"/><text x="816" y="460" text-anchor="middle" font-family="Inter, Arial, sans-serif" font-size="14" font-weight="700" fill="#ffffff">Comparison</text><rect x="888" y="438" width="112" height="34" rx="17" fill="rgba(255,255,255,0.13)" stroke="rgba(255,255,255,0.28)"/><text x="944" y="460" text-anchor="middle" font-family="Inter, Arial, sans-serif" font-size="14" font-weight="700" fill="#ffffff">Cloud VPS</text><rect x="1016" y="438" width="112" height="34" rx="17" fill="rgba(255,255,255,0.13)" stroke="rgba(255,255,255,0.28)"/><text x="1072" y="460" text-anchor="middle" font-family="Inter, Arial, sans-serif" font-size="14" font-weight="700" fill="#ffffff">Cost control</text>
</svg>
